# xmcd
#
# Track frame offsets:
# 150
# 17954
# 32011
# 36907
# 52991
# 65811
# 76555
# 89138
# 97653
# 104085
# 109960
# 116114
# 123058
# 128425
# 138584
# 154528
# 161101
# 177725
# 194645
# 208858
# 225130
# 243648
# 257830
# 272970
# 285825
# 303678
# 314043
# 326598
# 339874
#
# Disc length: 4722 seconds
#
#
# Revision: 0
# Processed by: cddbd v1.5.2PL0 Copyright (c) Steve Scherf et al.
# Submitted via: FreeRIP 2.951 
#
DISCID=a912701d
DTITLE=Furacão 2000 - Tsunami
DYEAR=1900
DGENRE=Funk
TTITLE0=Buchecha and Sabrina - Implacável
TTITLE1=Os Hawaianos - Vem Kikando
TTITLE2=Mc Sapão - Diretoria
TTITLE3=Mc Sapão - Moleque Chapa Quente
TTITLE4=Mc Sapão - Tô Tranquilão
TTITLE5=Sezinha da Vila - Bonde da Fúria
TTITLE6=Menor do Chapa - Fortaleceu Grandão
TTITLE7=Mc Ticão - Tudo Nosso
TTITLE8=Mc Ticão - Nós Corresponde
TTITLE9=Quebra Tudo - Zorra Hoje
TTITLE10=Os Magrinhos - Encaixa Nela
TTITLE11=Mascote - Mercenária
TTITLE12=Menor da Providência - Som da Furacão
TTITLE13=David Bolado - Os Bailes
TTITLE14=Kátia e Nem - Duelo
TTITLE15=Os Caçadores - Dona Gigi
TTITLE16=Márcio G - Pernão Sarado
TTITLE17=Robinho da Prata - Copo de Vinho
TTITLE18=Sabrina - Eu Te Amo
TTITLE19=Nardinho - Te Encontrar
TTITLE20=Na Gandaia - Vem pro Baile
TTITLE21=Pati - Tô Tranquilo
TTITLE22=Bloco $ Bruninho - Baile Bom
TTITLE23=Juliana and as Fogosas - Arrasta no Chão
TTITLE24=Mc Leozinho - É Show
TTITLE25=Mc Mazinho - É o Kit
TTITLE26=Ana Cláudia  - Atitude Disposição
TTITLE27=Montagem - Minha Filha de 14
TTITLE28=Montagem - Furacão Tsunami
EXTD=
EXTT0=
EXTT1=
EXTT2=
EXTT3=
EXTT4=
EXTT5=
EXTT6=
EXTT7=
EXTT8=
EXTT9=
EXTT10=
EXTT11=
EXTT12=
EXTT13=
EXTT14=
EXTT15=
EXTT16=
EXTT17=
EXTT18=
EXTT19=
EXTT20=
EXTT21=
EXTT22=
EXTT23=
EXTT24=
EXTT25=
EXTT26=
EXTT27=
EXTT28=
PLAYORDER=
